<svg id="Layer_1" data-name="Layer 1" xmlns="http://www.w3.org/2000/svg" viewBox="0 0 472 60"><path d="M13 1.33v22h23.22v-22h12.61v57.35H36.22V33.94H13v24.74H.39V1.33zm62.24 35v22.35h12.62v-22l21.29-35.35H95.09L81.76 24 68.34 1.33H54.21zm39.28-35v57.35h12.61V38.12h13.25a24 24 0 009.16-1.57 17 17 0 006.14-4.14 15.65 15.65 0 003.46-5.9 22 22 0 000-13.62A15.73 15.73 0 00155.69 7a17.21 17.21 0 00-6.14-4.14 24 24 0 00-9.16-1.56zm12.61 27v-17.2h9.8a25.76 25.76 0 014.18.32 9.8 9.8 0 013.53 1.24 6.81 6.81 0 012.45 2.62 9.2 9.2 0 01.92 4.41 9.24 9.24 0 01-.92 4.42 6.78 6.78 0 01-2.45 2.61 9.81 9.81 0 01-3.52 1.25 26.93 26.93 0 01-4.18.32zm38.47-27v57.35h43.53v-10.6h-30.91V34H206v-9.8h-27.78V11.93h30.28V1.33zm48.92 0v57.35h27.78a29.35 29.35 0 007.51-1 20 20 0 006.51-3 14.58 14.58 0 004.54-5.18 15.85 15.85 0 001.68-7.51 15.91 15.91 0 00-2.61-9.2 13.75 13.75 0 00-7.93-5.28 14.24 14.24 0 005.82-4.74 12.46 12.46 0 002-7.22 15.44 15.44 0 00-1.32-6.75 11 11 0 00-3.74-4.38A16 16 0 00249 2.05a35.87 35.87 0 00-7.47-.72zm12.6 23.21V11.13h11.81a18.11 18.11 0 013.25.28 8.14 8.14 0 012.77 1 5.26 5.26 0 011.93 2 6.6 6.6 0 01.72 3.29q0 3.62-2.17 5.23a9 9 0 01-5.54 1.6zm0 24.34V33.13h13.74a10.65 10.65 0 016.6 1.87q2.47 1.89 2.48 6.3a8 8 0 01-.75 3.7 6.21 6.21 0 01-2.06 2.3 8.78 8.78 0 01-3 1.2 17.53 17.53 0 01-3.53.36zm40.8-47.55v57.35h43.54v-10.6h-30.91V34h27.79v-9.8h-27.79V11.93h30.28V1.33zm70.6 0l-21.67 57.35h12.68L334 45.91h21.45l4.34 12.77h13.09L351.47 1.33zm-1.2 35.18l7.47-21h.21l7.23 21zm48.84 8.07a10.47 10.47 0 01-1-4.9h-12.25a19.08 19.08 0 001.93 9.16 18.11 18.11 0 005.42 6.34 23.25 23.25 0 007.87 3.66 36.14 36.14 0 009.2 1.16 35.31 35.31 0 0010.32-1.36 21.83 21.83 0 007.47-3.82 15.74 15.74 0 004.54-5.82 17.51 17.51 0 001.53-7.31 14 14 0 00-2.05-7.91 17.22 17.22 0 00-4.86-4.94 21.28 21.28 0 00-5.66-2.69c-1.91-.56-3.39-.95-4.46-1.17-3.59-.9-6.5-1.66-8.72-2.24a31.78 31.78 0 01-5.21-1.74 5.75 5.75 0 01-2.54-2 5.25 5.25 0 01-.64-2.73 5.35 5.35 0 01.81-3 6.86 6.86 0 012-2 8.14 8.14 0 012.78-1.13 15 15 0 013-.32 22.06 22.06 0 014.3.4 10.65 10.65 0 013.5 1.36 7.2 7.2 0 012.56 2.64 10.12 10.12 0 011.09 4.25h12.21a17.61 17.61 0 00-1.93-8.47 16.38 16.38 0 00-5.1-5.74A21.5 21.5 0 00404.92 1a36.42 36.42 0 00-8.63-1 29.63 29.63 0 00-7.71 1 21.6 21.6 0 00-6.91 3.22 17 17 0 00-4.94 5.42 15 15 0 00-1.89 7.67 14.15 14.15 0 001.48 6.71 14.35 14.35 0 003.9 4.62 21.71 21.71 0 005.47 3 54.85 54.85 0 006.26 2q3.14.89 6.18 1.6A40.39 40.39 0 01403.6 37a11.68 11.68 0 013.89 2.41 5 5 0 011.51 3.72 5.56 5.56 0 01-1.13 3.58 7.88 7.88 0 01-2.87 2.21 12.39 12.39 0 01-3.57 1.08 24.68 24.68 0 01-3.61.28 18.73 18.73 0 01-4.82-.6 11.9 11.9 0 01-4.06-1.84 9.17 9.17 0 01-2.77-3.26m55.63-32.65v46.75h12.62V11.93h17.19V1.33h-47v10.6z"/></svg>