<svg xmlns="http://www.w3.org/2000/svg" viewBox="0 0 336 41.9"><path d="M25.02.95v15.37H8.81V.95H0v40.06h8.81V23.73h16.21v17.28h8.81V.95h-8.81zm41.62 0l-9.31 15.82L47.96.95h-9.87l14.69 24.46v15.6h8.81V25.64L76.45.95h-9.81zm32.2 0a16.66 16.66 0 016.39 1.1 11.88 11.88 0 014.29 2.9 11 11 0 012.41 4.09 15.25 15.25 0 010 9.51 11 11 0 01-2.41 4.12 11.88 11.88 0 01-4.29 2.89 16.67 16.67 0 01-6.39 1.09h-9.26V41h-8.81V.95zM96.42 19.8a18.39 18.39 0 002.92-.22 6.77 6.77 0 002.47-.87 4.73 4.73 0 001.71-1.83 6.38 6.38 0 00.64-3.08 6.45 6.45 0 00-.64-3.09 4.77 4.77 0 00-1.71-1.82 6.77 6.77 0 00-2.47-.87 18.39 18.39 0 00-2.92-.22h-6.84v12zM147.75.95v7.41H126.6v8.58h19.41v6.85H126.6v9.81h21.6v7.41h-30.41V.95h29.96zm24.96 0a24.71 24.71 0 015.22.51 11.21 11.21 0 014 1.65 7.62 7.62 0 012.61 3.06 10.69 10.69 0 01.93 4.71 8.76 8.76 0 01-1.35 5.07 9.92 9.92 0 01-4.06 3.31 9.57 9.57 0 015.52 3.69 11.08 11.08 0 011.83 6.42 11.11 11.11 0 01-1.18 5.25 10.27 10.27 0 01-3.17 3.62 14.16 14.16 0 01-4.54 2.07 20.48 20.48 0 01-5.25.67h-19.41V.95zm-1.12 16.21a6.32 6.32 0 003.87-1.12A4.22 4.22 0 00177 12.4a4.72 4.72 0 00-.5-2.3 3.81 3.81 0 00-1.35-1.41 5.75 5.75 0 00-1.93-.7 13 13 0 00-2.28-.19h-8.24v9.36zm.5 17a11.62 11.62 0 002.47-.25 6.14 6.14 0 002.08-.84 4.43 4.43 0 001.43-1.6 5.58 5.58 0 00.53-2.58q0-3.09-1.74-4.41a7.47 7.47 0 00-4.6-1.31h-9.59v11zM222.52.95v7.41h-21.15v8.58h19.41v6.85h-19.41v9.81h21.6v7.41h-30.4V.95h29.95zm27.99 0l15 40.05h-9.14l-3-8.91h-15L235.23 41h-8.86L241.48.95zm.49 24.57l-5-14.69h-.11l-5.22 14.69zm25 5.61a6.29 6.29 0 002 2.27 8.4 8.4 0 002.84 1.29 13.33 13.33 0 003.36.42 17.44 17.44 0 002.52-.19 8.94 8.94 0 002.53-.76 5.42 5.42 0 002-1.54 3.86 3.86 0 00.79-2.5 3.51 3.51 0 00-1-2.63 8.15 8.15 0 00-2.72-1.69 27.33 27.33 0 00-3.81-1.18c-1.43-.33-2.87-.71-4.32-1.12a37.75 37.75 0 01-4.38-1.37 14.64 14.64 0 01-3.81-2.11 9.42 9.42 0 01-3.76-7.9 10.47 10.47 0 011.32-5.36 11.92 11.92 0 013.34-3.81 15.12 15.12 0 014.82-2.22 20.4 20.4 0 015.39-.73 25.4 25.4 0 016 .7 15.3 15.3 0 015.16 2.25 11.64 11.64 0 013.56 4 12.3 12.3 0 011.32 6h-8.53a7.11 7.11 0 00-.75-3 5 5 0 00-1.72-1.85 7.24 7.24 0 00-2.44-1 15.46 15.46 0 00-3-.28 10.29 10.29 0 00-2.13.23 5.76 5.76 0 00-1.93.78 4.9 4.9 0 00-1.43 1.4 3.77 3.77 0 00-.57 2.14 3.56 3.56 0 00.45 1.9 4 4 0 001.77 1.35 22.46 22.46 0 003.65 1.23q2.33.63 6.08 1.57c.75.15 1.79.43 3.12.82a14.94 14.94 0 013.95 1.88 11.87 11.87 0 013.39 3.45 9.76 9.76 0 011.43 5.52 12.27 12.27 0 01-1.06 5.11 11.09 11.09 0 01-3.17 4.06 15.11 15.11 0 01-5.26 2.69 24.85 24.85 0 01-7.21 1 25.44 25.44 0 01-6.42-.81 16.35 16.35 0 01-5.5-2.55 12.53 12.53 0 01-3.78-4.44 13.1 13.1 0 01-1.35-6.39h8.53a7.27 7.27 0 00.73 3.42m27.19-22.82V.95H336v7.41h-12V41h-8.81V8.36h-12z"/></svg>