<?xml version="1.0" encoding="utf-8"?>
<!-- Generator: Adobe Illustrator 25.1.0, SVG Export Plug-In . SVG Version: 6.00 Build 0)  -->
<svg version="1.1" id="Layer_1" xmlns="http://www.w3.org/2000/svg" xmlns:xlink="http://www.w3.org/1999/xlink" x="0px" y="0px"
	 viewBox="0 0 38 48" style="enable-background:new 0 0 38 48;" xml:space="preserve">
<style type="text/css">
	.st0{fill-rule:evenodd;clip-rule:evenodd;fill:#020202;}
</style>
<desc>Created with Sketch.</desc>
<g id="Page-1">
	<g id="Social-Icons---Isolated" transform="translate(-505.000000, -167.000000)">
		<path id="Pinterest" class="st0" d="M527.2,201.7c-3,0-5.8-1.6-6.7-3.4c0,0-1.6,6.4-1.9,7.6c-1.2,4.3-4.7,8.7-5,9
			c-0.2,0.2-0.6,0.2-0.7-0.2c-0.1-0.6-1-6,0.1-10.5c0.5-2.2,3.5-15,3.5-15s-0.9-1.8-0.9-4.4c0-4.1,2.4-7.1,5.3-7.1
			c2.5,0,3.7,1.9,3.7,4.1c0,2.5-1.6,6.3-2.4,9.8c-0.7,2.9,1.5,5.3,4.3,5.3c5.2,0,8.7-6.7,8.7-14.7c0-6-4.1-10.6-11.5-10.6
			c-8.3,0-13.5,6.2-13.5,13.2c0,2.4,0.7,4.1,1.8,5.4c0.5,0.6,0.6,0.8,0.4,1.5c-0.1,0.5-0.4,1.7-0.6,2.2c-0.2,0.7-0.7,0.9-1.4,0.7
			c-3.8-1.6-5.6-5.8-5.6-10.5c0-7.8,6.6-17.2,19.7-17.2c10.5,0,17.4,7.6,17.4,15.8C542.1,193.6,536.1,201.7,527.2,201.7"/>
	</g>
</g>
</svg>
